# xmcd CD database file
#
# Track frame offsets:
#	150
#	18058
#	40096
#	61500
#	76611
#	94712
#	110932
#	128487
#	147392
#	164808
#	191494
#
# Disc length: 2778 seconds
#
# Revision: 0
# Processed by: cddbd v1.5.1PL0 Copyright (c) Steve Scherf et al.
# Submitted via: CDex 1.51
#
DISCID=850ad80b
DTITLE=Kenny Chesney - No Shoes, No Shirt, No Problems
DYEAR=2002
DGENRE=Country
TTITLE0=Young
TTITLE1=I Remember
TTITLE2=A Lot Of Thinks Different
TTITLE3=The Good Stuff
TTITLE4=Big Star
TTITLE5=On The Coast Of Somewhere Beautiful
TTITLE6=Never Gonna Feel That Way Agayn
TTITLE7=Dreams
TTITLE8=No Shoes, No Shirt, No Problems
TTITLE9=Live Those Songs
TTITLE10=I Can't Go there
EXTD=YEAR: 2002
EXTT0=
EXTT1=
EXTT2=
EXTT3=
EXTT4=
EXTT5=
EXTT6=
EXTT7=
EXTT8=
EXTT9=
EXTT10=
PLAYORDER=
